<?xml version="1.0"?>
<svg xmlns:rdf="http://www.w3.org/1999/02/22-rdf-syntax-ns#" xmlns="http://www.w3.org/2000/svg" xmlns:cc="http://creativecommons.org/ns#" xmlns:dc="http://purl.org/dc/elements/1.1/" xmlns:svg="http://www.w3.org/2000/svg" id="svg2" viewBox="0 0 525.02 501.18" version="1.0">
  <path id="path2311" d="m180.96 496.22c-8.66-4.44-23.06-16.68-23.06-19.59 0-0.64-3.66-5.27-8.14-10.28-4.47-5.02-10.45-12.23-13.29-16.03-5.7-7.65-24.92-20.72-30.97-21.07-2.09-0.12-3.79-0.77-3.79-1.45 0-2.18-26.283 0.06-32.621 2.77-3.323 1.42-8.961 4.6-12.53 7.05-3.568 2.46-6.488 3.66-6.488 2.67 0-2.09 5.822-7.46 8.086-7.46 0.85 0 2.625-0.93 3.944-2.07 4.829-4.17 17.269-7.04 30.384-7.03 10.645 0.01 14.495 0.7 21.085 3.77 11.77 5.48 20.56 12.26 26.3 20.29 2.78 3.88 8.82 11.28 13.44 16.43 4.61 5.16 11.33 12.83 14.94 17.06 4.45 5.21 9.66 9.16 16.26 12.31 5.35 2.55 10.13 5.3 10.63 6.11 1.82 2.96-4.83 1.33-14.18-3.48zm-160.48 0.77c0.609-1.46 2.064-7.05 3.233-12.41 1.169-5.37 3.122-12.89 4.341-16.71 12.541-39.32 18.112-53.34 23.406-58.92 3.118-3.28 19.874-15.2 21.392-15.21 0.418-0.01 4.715-0.9 9.549-1.98 5.603-1.25 8.081-2.41 6.835-3.19-2.659-1.65 8.335-0.02 18.365 2.73 10.26 2.82 20.88 13.06 30.46 29.38 12.14 20.7 18.77 31.08 22.29 34.93 1.92 2.09 5.63 6.19 8.25 9.11l4.77 5.32-5.29-10.08c-5.65-10.78-11.81-28.44-15.6-44.78-2.12-9.17-2.11-10.97 0.15-19.98 1.37-5.44 3.04-10.99 3.72-12.33 3.34-6.61 9.57-30.44 11.62-44.44 1.76-11.98 2.04-21.47 1.21-40.01-2.25-49.92-2-71.63 0.98-83.19 1.84-7.16 2.29-11.6 1.35-13.35-2.16-4.04-11.79-10.99-22.73-16.41-5.44-2.69-13.98-8.7-18.99-13.37-13.46-12.53-26.17-22.99-30.971-25.47-3.587-1.85-5.495-1.89-12.444-0.22-10.585 2.55-25.534 9.29-29.12 13.14-3.426 3.68-8.624 14.85-8.67 18.63-0.018 1.52-1.058 3.79-2.311 5.04s-2.278 4.6-2.278 7.43c0 5.17 4.178 15.89 6.193 15.89 0.592 0 1.467 1.02 1.945 2.27 1.143 2.98-6.311 6.84-13.193 6.84-8.177 0-15.23-3.78-22.847-12.25-9.8253-10.93-16.153-24.71-16.094-35.04 0.05756-9.96 8.2005-30.48 18.925-47.68 8.923-14.32 24.615-27.33 45.819-37.995 11.84-5.955 16.958-9.753 28.655-21.261 13.881-13.66 22.581-18.901 31.361-18.901 1.52 0 2.85-0.683 2.95-1.518 0.11-0.835 0.32-2.031 0.48-2.658 0.15-0.626 0.8-4.65 1.44-8.942 1.32-8.801 5.88-14.186 14.45-17.049 7.27-2.4308 18.36-2.142 26.16 0.681 9.12 3.303 25.07 1.823 36.21-3.3607 12.39-5.7653 24.22-9.6763 29.28-9.6763 7.01-2.4425e-14 13.06 4.3537 13.6 9.7749 0.49 4.9681-1.53 15.809-3.41 18.321-3.02 4.034-9.31 16.534-12.19 24.223-3.66 9.795-3.47 18.864 0.73 33.487 1.44 5.012 2.74 11.897 2.89 15.304 0.25 5.94 0.35 6.06 2.61 3.03 1.29-1.73 3.21-4.855 4.26-6.943 5.03-9.99 7.13-13.411 12.1-19.743 11.34-14.451 21.85-22.368 44.67-33.649 24.83-12.279 41.53-14.597 57.91-8.038 11.79 4.719 16.07 8.993 22.76 22.739 3.84 7.887 8.11 13.398 16.71 21.562 19.18 18.209 21.35 22.232 27.57 51.122 1.65 7.66 2.04 12.3 1.08 12.91-1.31 0.81-5.12 13.78-7.08 24.1-0.36 1.88-1.12 4.19-1.7 5.12-0.57 0.93-1.59 3.83-2.26 6.44-1.91 7.48-5.54 19.7-6.66 22.43-0.89 2.15 0.86 1.98 13.12-1.27 32.7-8.65 57.79 0.11 68.31 23.88 1.12 2.53 5.39 6.43 10.25 9.37 4.58 2.76 11.53 8.27 15.45 12.23 15.09 15.28 10.14 27.22-13.93 33.61-14.53 3.86-14.17 3.13-6.61 13.4 11.32 15.37 14.12 32.77 7.65 47.54-9.08 20.73-10.6 22.48-22.71 26.08-8.6 2.55-10.62 4.08-25.41 19.3-15.64 16.08-16.28 16.54-23.77 17.26-6.84 0.66-7.96 0.34-10.04-2.86-3.03-4.66-4.35-11.94-2.16-11.94 0.92 0 1.24-0.44 0.71-0.96-0.53-0.53 0.04-2.39 1.27-4.14 4.29-6.14 2.67-8.84-16.56-27.56-15.66-15.25-20.88-19.33-31.51-24.61-7-3.49-15.01-8.03-17.8-10.1-4.84-3.6-5.18-3.64-7.74-1.08-1.48 1.48-8.43 4.17-15.44 5.98-7.02 1.81-15.49 4.08-18.84 5.05-3.34 0.97-6.75 1.83-7.59 1.92-0.83 0.09-4.16 1.33-7.4 2.77-3.23 1.43-6.49 2.61-7.23 2.61-0.75 0-2.54 0.64-3.99 1.41-7.02 3.77-22.82 10.74-24.32 10.74-3.69 0-24.68 19.03-44.39 40.24-18.11 19.51-28.06 27.14-37.34 28.65-2.43 0.4-4.59 0.86-4.8 1.03-0.21 0.18-1.23 0.4-2.28 0.51-1.05 0.1-2.11 2.75-2.37 5.98-1.15 13.93 17.46 46.73 35.48 62.56 5.62 4.93 9.4 9.24 8.4 9.57s-3.26-0.66-5.03-2.21c-2.14-1.88-2.79-2.05-1.95-0.54 2.76 5.02-9.14-7.5-16.61-17.46-15.21-20.29-23.48-38.8-24.18-54.11-0.32-6.84-0.08-7.4 3.21-7.4 1.96 0 4.39-0.7 5.4-1.56 1.01-0.85 4.91-3.54 8.66-5.97 3.76-2.43 8.21-5.66 9.9-7.18 5.7-5.14 8.5-7.07 8.23-5.67-0.14 0.77-0.18 1.85-0.08 2.4s9.92-8.75 21.82-20.68c11.9-11.92 24.72-23.61 28.48-25.98 17.02-10.73 44.64-21.9 63.68-25.77 20.87-4.23 32.15-9.19 27.47-12.08-0.89-0.55-1.44-0.13-1.21 0.94 0.23 1.08-0.98 2.05-2.68 2.17-1.71 0.12-4.44 0.93-6.08 1.8-1.63 0.87-10.49 3.39-19.68 5.61-24.22 5.84-30.37 7.94-45.18 15.44-7.31 3.7-13.29 6.04-13.29 5.2 0-1.94 18.35-11.21 31.61-15.98 5.59-2.01 17.4-5.36 26.25-7.44 17-4 27.2-8.02 27.18-10.7-0.01-2.08-8.52-7.88-14.74-10.04-4.22-1.48-5.51-1.21-10.51 2.19-3.14 2.13-6.02 3.55-6.42 3.16-0.39-0.4-0.43-0.94-0.09-1.2 7.66-5.76 9.15-7.12 7.87-7.12-0.85 0-4.7 1.77-8.56 3.93s-7.03 3.2-7.03 2.32c0-0.89 2.12-2.71 4.7-4.04 2.58-1.34 4.33-2.8 3.87-3.26s-5.96 2.67-12.24 6.95c-6.27 4.27-11.91 7.77-12.52 7.77-1.93 0 9.65-9.93 13.77-11.8 2.17-0.99 3.94-2.5 3.94-3.35 0-1.99-2.57-2.02-3.79-0.04-0.52 0.84-1.63 1.52-2.46 1.52-0.84 0-1.11-0.65-0.62-1.45 1.38-2.24-7.07 1.16-10.59 4.25-4.34 3.81-11.08 11.85-8.35 9.96 1.25-0.87 5.54-4.19 9.53-7.38 3.98-3.2 7.59-5.46 8.01-5.04 0.42 0.41-2.85 3.51-7.25 6.87-10.66 8.14-23.45 20.7-24.61 24.17-1.12 3.35-13 9.63-18.21 9.63-3.69 0-8.48-3.5-8.48-6.19 0-0.77-2.42-1.41-5.39-1.41-3.86 0-6.43-1.12-9.06-3.96-4.15-4.48-4.31-4.93-6.91-19.58-1.8-10.08-2.4-11.15-11.87-20.98-12.46-12.91-12.78-15.97-3.63-34.03 3.82-7.53 5.72-12.86 4.79-13.44-2.07-1.28-2.54-0.66-6.01 7.92-2.56 6.33-2.85 6.62-2.02 2.06 0.54-2.92 1.9-7.12 3.04-9.33 1.76-3.45 1.73-4.3-0.22-5.92-2.61-2.16-2.96-1.95-4.4 2.73-0.62 2.02-0.4 3.41 0.53 3.41 0.86 0 1.18 1.03 0.69 2.28-1.45 3.8-5.57 2.8-4.68-1.14 2.6-11.45 2.84-14.07 1.01-11.18-3.06 4.83-5.95 17.94-5.97 27.04-0.01 4.75-0.75 9.09-1.64 9.64-1.12 0.7-1.36-2.42-0.76-10.16 1.18-15.25 1.66-17.88 4.49-24.65 1.35-3.23 2.45-6.03 2.45-6.23 0-0.21-1.95-2.61-4.34-5.34l-4.34-4.97-0.89 3.62c-0.49 2-1.38 7.39-1.98 11.98-0.98 7.55-0.85 8.16 1.35 6.34 1.33-1.1 2.08-2.91 1.65-4.02-0.42-1.11-0.03-2.47 0.88-3.03 0.9-0.56 1.3-1.58 0.88-2.26-0.43-0.68 0.15-2.01 1.28-2.95 1.64-1.35 1.99-1 1.7 1.73-0.2 1.89-0.5 3.43-0.68 3.43s-0.56 1.37-0.85 3.04c-0.53 3.01-0.77 4-2.86 11.45-0.59 2.12-1.32 8.27-1.62 13.67-0.3 5.39-0.6 9.81-0.68 9.81-0.07 0-0.36 10.93-0.64 24.3-0.36 17.53-1.28 27.22-3.31 34.78-2.02 7.53-3.1 9.68-3.82 7.6-0.66-1.87-1.92 2.02-3.57 11-1.41 7.65-4.55 20.26-6.99 28.04s-4.25 14.33-4.03 14.55c0.58 0.58 13.12-27.81 13.12-29.69 0-0.86 0.75-2.03 1.68-2.6 2.26-1.39 0.68 3.45-5.49 16.81-7.17 15.53-11.39 27.64-11.28 32.33 0.09 4.02 0.15 4 2.57-1.2 10.61-22.81 16.11-33.41 17.31-33.41 0.78 0-0.27 2.91-2.31 6.46-5.07 8.79-14.63 32.37-14.63 36.08 0 1.66-0.58 3.02-1.29 3.02-1.86 0 5.16 23.38 10.37 34.55 7.03 15.07 19.46 31.76 27.51 36.92 3.92 2.52 7.47 5.92 7.9 7.56 1.13 4.29-2.15 3.72-7.38-1.3-2.45-2.36-8.33-6.83-13.06-9.93-4.72-3.1-9.66-7.28-10.98-9.29-1.31-2-3.93-5.3-5.83-7.32-6.64-7.09-15.17-18.68-25.77-34.97-11.38-17.5-25-33.35-31.46-36.6-13.452-6.77-38.92-0.9-52.237 12.05-4.944 4.81-12.728 19.11-14.863 27.32-0.652 2.5-3.93 12.07-7.283 21.26-5.761 15.78-8.946 28.09-7.268 28.09 0.815 0 14.698-20.68 14.698-21.89 0-4 26.404-34.22 28.265-32.36 0.461 0.46 3.152-0.13 5.981-1.31 6.312-2.64 6.759-2.65 6.759-0.17 0 1.09-3.246 3.16-7.214 4.61-10.434 3.81-17.384 11.06-33.308 34.75-7.776 11.57-15.636 23.06-17.468 25.54-3.641 4.92-6.777 6.08-5.013 1.84zm167.47-83.51c2.26-1.45 5.01-3.48 6.09-4.52 1.09-1.03 3.38-2.87 5.1-4.07 1.73-1.21 2.89-2.85 2.59-3.65-0.3-0.81-4.85 2.21-10.12 6.71-9.77 8.34-11.03 10.24-3.66 5.53zm245.54-16.15c1.66 0.64 4.4-1.17 8.47-5.57 3.3-3.59 6.01-6 6.01-5.38 0 1.38 11.54-10.68 14.7-15.37 2.44-3.61 16.17-11.08 20.37-11.08 4.63 0 11.71-9.84 12.79-17.78 0.55-4 1.6-10.35 2.34-14.11l1.33-6.84-0.52 7.24c-0.61 8.46 1.36 11.07 2.6 3.43 1.27-7.83 0.27-19.54-1.73-20.2-0.97-0.33-1.76-2.25-1.76-4.27 0-2.46-3.99-8.14-12.01-17.07-10.74-11.98-13.25-13.93-23.92-18.51-6.55-2.82-16.36-7.79-21.78-11.04-14.38-8.62-26.26-13.22-37.64-14.59-10-1.2-12-1.17-30.71 0.59-15.24 1.43-33.66 9.15-44.19 18.52-4.87 4.33-13.59 10.63-19.36 14.01-9.09 5.3-12.38 8.45-12.38 11.82 0 0.45 3.63 0.36 8.06-0.2 10.5-1.31 34.46 3.65 34.46 7.14 0 0.79-1.19 0.94-2.65 0.32-1.47-0.61-4.37-1.43-6.46-1.81-3.53-0.64-3.48-0.52 0.72 1.8 9.76 5.38 15.51 9.18 22.06 14.56 3.76 3.08 13.21 8.91 21.01 12.95 13.62 7.05 27.85 17.92 34.37 26.26 1.7 2.17 5.39 5.98 8.21 8.46 7.72 6.8 12.35 15.06 12.35 22.02 0 4.5-0.54 5.86-2.08 5.27-1.39-0.54-2.39 0.82-3.05 4.12-1.11 5.57 1.14 8.01 5.31 5.78 1.45-0.78 3.74-0.99 5.08-0.47zm3.09-3.99c0.52-0.83 1.62-1.52 2.46-1.52 0.83 0 1.09 0.69 0.58 1.52-0.52 0.84-1.63 1.52-2.46 1.52-0.84 0-1.1-0.68-0.58-1.52zm2.74-11.67c0.49-0.79-0.12-4.39-1.36-7.99-2.65-7.67-1.82-9.84 1.39-3.64 3.18 6.16 3.7 11.5 1.19 12.35-1.16 0.39-1.71 0.07-1.22-0.72zm2.57-12.16c-2.92-5.56-6.91-12.05-8.86-14.4-4.21-5.08-2.18-5.83 2.35-0.87 4.71 5.14 12.9 20.47 12.33 23.09-0.28 1.26-2.89-2.26-5.82-7.82zm14.79-9.11c-0.45-3.18-1.34-7.07-1.97-8.65-0.84-2.1-0.58-2.68 0.99-2.16 2.77 0.92 5.45 12.96 3.34 15.06-1.03 1.04-1.8-0.34-2.36-4.25zm3.77-4.54c-0.99-4.75-1.48-8.95-1.09-9.35 1.15-1.15 5.31 9.92 5.31 14.13 0 6.78-2.35 4.12-4.22-4.78zm6.09-3.87c-1.41-6.72-0.75-10.72 1.17-7.06 1.98 3.76 2.97 11.83 1.57 12.69-0.76 0.47-1.99-2.06-2.74-5.63zm-127.92-62.23c-2.09-0.9-11.08-1.71-19.97-1.8-8.9-0.09-15.87-0.68-15.48-1.31 0.39-0.62 6.9-1.14 14.48-1.14 13.02 0 24.51 2 27.73 4.82 2.03 1.77-2.14 1.42-6.76-0.57zm31.9-2.75c-1.26-0.8-8.43-1.51-15.95-1.58-9.07-0.08-12.65-0.57-10.63-1.43 4.01-1.73 25.24-1.84 27.9-0.16 1.15 0.73 1.83 2.06 1.52 2.97-0.37 1.08-1.34 1.15-2.84 0.2zm-62.27-4.33c0-1.74 10.43-5.6 23.54-8.71 12.23-2.9 52.52-3.91 53.4-1.34 0.34 1-5.2 1.37-15.81 1.04-8.98-0.28-20.09 0.18-24.68 1.01l-8.36 1.51 12.15-0.05c24.27-0.1 28.1 0.19 28.1 2.2 0 1.46-2.47 1.7-10.25 0.98-5.64-0.52-16.03-0.4-23.1 0.28-13.64 1.31-16.43 0.87-10.53-1.65 6.08-2.61-5.6-0.18-15.3 3.17-9.63 3.34-9.16 3.26-9.16 1.56zm62.61-16.61c-4.55-0.26-7.63-1.08-7.13-1.9 1.15-1.86 15.45-1.88 16.59-0.02 1.28 2.07-0.52 2.43-9.46 1.92zm-116.6 67.8c2.13-0.97 3.87-2.7 3.87-3.85 0-1.14 1.03-2.47 2.28-2.95s6.7-7.22 12.1-14.97c5.41-7.75 11.9-16.05 14.43-18.44 2.53-2.38 4.58-5.02 4.56-5.86-0.07-2.37-11.31-14.43-13.45-14.43-1.05 0-2.89-0.99-4.09-2.18-1.54-1.54-5.95-2.2-15.08-2.23-13.54-0.05-16.26-0.91-25.27-7.96-4.2-3.3-7.16-4.34-12.3-4.34-13.48 0-23.93 6.11-23.93 14.01 0 3.39 2.33 6.63 10.5 14.6 9.43 9.22 10.59 11.01 11.52 17.78 2.59 18.72 5.86 24.86 13.15 24.65 3.51-0.1 5.55 0.93 7.71 3.9 3.2 4.39 7.73 5.13 14 2.27zm-20.4-22.41c-0.02-5.36 0.23-9.46 0.55-9.11 1.43 1.55 2.09 14.71 0.85 16.67-0.91 1.44-1.39-1.12-1.4-7.56zm7.19 4.77c-2.91-0.62-3.45-4.36-1.14-7.93 1.13-1.76 1.48-1.23 1.52 2.27 0.03 3.14 0.45 3.92 1.35 2.5 0.72-1.13 1.69-1.44 2.15-0.69 1.34 2.17-0.97 4.46-3.88 3.85zm-63.6-23.12c-0.06-12.11-0.04-28.34 0.06-36.07 0.13-9.81-0.35-14.05-1.59-14.05-1.31 0-1.54-4.84-0.85-18.41 0.5-10.13 0.61-18.11 0.24-17.73-2.02 2.02-3.63 18.77-3.71 38.67-0.07 18.41 1.12 80.57 1.65 86.32 0.08 0.83 1.09-2.59 2.23-7.6 1.3-5.66 2.05-17.45 1.97-31.13zm311.52-14.3c0-0.35-3.58-2.83-7.96-5.53-7.52-4.62-7.76-4.96-4.42-6.2 2.2-0.81 4.5-0.69 6.06 0.32 2.3 1.49 2.29 1.57-0.13 0.81-4.52-1.4-2.98 0.14 5.1 5.11 8.52 5.25 11.75 5.24 23.58-0.08 6.87-3.09 8.15-5.12 8.15-12.88 0-4.02-1.46-6.68-6.58-12.03-3.61-3.77-7.71-6.86-9.11-6.86-1.39 0-2.54-0.51-2.54-1.15 0-0.63-2.06-2.06-4.59-3.18-4.83-2.13-5.43-2.84-15.34-18.11-6.56-10.1-10.96-13.21-23.27-16.46-8.75-2.31-25.21-1.61-37.06 1.59-8.16 2.2-13.42 5.09-6.3 3.46 8.44-1.93 15.89-2.94 15.06-2.04-0.48 0.52-6.26 2.33-12.83 4.01-9.96 2.55-15.55 5.41-13.86 7.1 0.2 0.19 4.44-0.62 9.41-1.8 10.82-2.59 17.26-2.93 11.49-0.63-1.99 0.8-8.26 2.51-13.92 3.8-6.05 1.37-10.65 3.28-11.16 4.62-0.63 1.64-0.13 2.06 1.77 1.48 5.41-1.64 16.41-3.88 19.23-3.91 5.18-0.07 1.6 1.45-7.32 3.1-9.01 1.66-23.15 7.02-21.88 8.29 0.4 0.4 4.09-0.29 8.19-1.54 7.41-2.25 14.03-3.04 12.48-1.49-0.45 0.45-7.83 2.82-16.41 5.27-17.71 5.06-20.84 6.84-9.99 5.67 10.46-1.12 30.34 2.44 41 7.35 4.94 2.28 13.14 7.02 18.22 10.54 5.09 3.52 13.94 7.94 19.68 9.83 5.74 1.88 12.57 5.37 15.19 7.75 4.01 3.66 10.06 5.94 10.06 3.79zm-13.66-14.56c0-0.83 0.68-1.52 1.51-1.52 0.84 0 1.52 0.69 1.52 1.52 0 0.84-0.68 1.52-1.52 1.52-0.83 0-1.51-0.68-1.51-1.52zm-170.91 4.62c4.47-4.67 8.88-6.57 5.34-2.3-1.06 1.27-1.44 2.79-0.86 3.38 1.09 1.09 19.05-17.59 19.09-19.86 0.01-0.69-4.25 1.84-9.47 5.62-5.22 3.77-13.73 9.76-18.91 13.29-5.17 3.53-9.1 6.93-8.71 7.55 1.07 1.73 8.59-2.55 13.52-7.68zm0.09-8.6c5-3.45 11.24-8.23 13.85-10.63s6.71-5.5 9.1-6.87c4.17-2.41 11.18-10.97 11.18-13.67 0-1.91-2.94-1.58-5.37 0.6-9.76 8.76-23.24 17.68-26.34 17.44-1.77-0.13-3.22-0.73-3.22-1.34 0-0.6 4.7-4.25 10.43-8.09 5.74-3.85 11.99-8.66 13.89-10.69 1.91-2.02 5.74-4.44 8.53-5.35 7.15-2.36 9.52-11.04 6.04-22.09-1.34-4.25-2.44-10.2-2.44-13.22 0-8.79 3.07-20.82 5.31-20.82 2.91 0 8.19 11.8 9.2 20.57 1.31 11.25 2.29 15.12 3.44 13.52 0.57-0.79 3.58-2.62 6.7-4.06 4.99-2.3 5.57-3.12 4.83-6.83-0.46-2.32-0.15-8.43 0.69-13.57 0.83-5.15 1.15-10.74 0.71-12.42-0.79-3.04-0.84-3.04-5.59-0.14-5.74 3.5-10.59 3.74-13.65 0.68-2.99-2.99-1.72-7.74 4.07-15.22 9.6-12.38 18.6-17.1 25.68-13.46 5.5 2.83 5.22 5.86-1.38 14.85-5.24 7.16-5.49 8.05-5.81 21.27-0.19 7.58-0.84 15.23-1.45 16.99-0.93 2.71-0.38 3.35 3.58 4.14 3.31 0.67 4.68 1.81 4.68 3.91 0 5.94-3.02 10.67-9 14.1-3.97 2.28-6.42 4.92-7 7.55-0.49 2.22-4.66 9.74-9.26 16.7-4.6 6.97-8.67 13.12-9.02 13.67-0.36 0.54 0.88 0.61 2.76 0.13 1.88-0.47 4-1.82 4.7-3.01 1.25-2.1 19.03-11.03 21.96-11.03 0.82 0 1.89-1.03 2.37-2.29 0.49-1.26 1.55-2.12 2.37-1.9 2.67 0.71 10.74-5.62 10.74-8.43 0.01-1.51 0.68-2.33 1.5-1.83 1.86 1.15 10.79-12.85 14.03-22 11.56-32.63 14.01-43.07 14.05-59.99 0.04-16.2-0.13-17.05-5.54-28.09-4.49-9.18-7.94-13.535-17.73-22.404-11.29-10.227-21.49-24.597-21.49-30.265 0-6.903-22.43-20.232-34.05-20.232-7.13 0-22.14 3.231-22.14 4.765 0 0.72-1.37 1.309-3.04 1.309-3.75 0-27.96 11.843-36.78 17.99-9.1 6.337-21.08 19.153-27.57 29.499-3.03 4.819-5.51 9.156-5.51 9.637s-1.28 2.691-2.84 4.911c-3.71 5.25-10.43 24.96-14.07 41.23-8.22 36.8-9.11 62.41-2.84 81.91 1.72 5.38 3.46 13.18 3.86 17.35 0.39 4.16 0.89 7.65 1.09 7.75 0.21 0.09 4.01 2.37 8.45 5.05 4.44 2.69 8.65 4.88 9.35 4.88s1.74-3.41 2.32-7.59c0.57-4.17 1.75-8.03 2.62-8.57 1.54-0.95 0.5 10.67-1.39 15.6-0.44 1.15-0.15 2.08 0.64 2.08s2.69-4.13 4.22-9.18c2.84-9.36 6.38-14.39 4.98-7.05-1.27 6.65 4.22 2.2 8.79-7.14 2.18-4.45 5.46-9.73 7.28-11.73 1.83-1.99 5.28-7.04 7.67-11.22 5.51-9.6 5.34-9.44 6.96-6.82 0.87 1.41 0.64 3.03-0.65 4.51-1.1 1.27-5.3 8.12-9.32 15.22-4.03 7.1-8.98 15.13-11.01 17.85-2.03 2.71-3.1 4.89-2.37 4.85 0.73-0.05 3.94-3.53 7.14-7.73s6.19-7.26 6.64-6.82c0.99 1-8.44 14.02-13.79 19.03-2.14 2-3.52 4.25-3.06 4.99 0.47 0.75 2.75-1.23 5.08-4.4 4.73-6.42 13.74-15.29 13.74-13.52 0 0.62-0.7 2.44-1.56 4.04-1.25 2.34-1.1 2.73 0.76 2.02 1.28-0.49 2.32-0.13 2.32 0.79 0 0.93-0.52 1.69-1.14 1.71-0.63 0.01-3.4 2.75-6.16 6.07-3.98 4.8-4.48 6.05-2.41 6.05 1.44 0 2.16-0.46 1.59-1.02-1.26-1.27 5.09-8.26 6.63-7.31 3.21 1.98 17.19-26.54 22.89-46.7 4.19-14.8 4.18-14.83-4.75-14.83-5.67 0-7.88-0.64-8.59-2.48-2.15-5.6 5.23-10.77 17.34-12.14 6.34-0.72 8.14-0.23 14.39 3.96 3.93 2.63 7.57 6.13 8.1 7.79 2.02 6.38-5.98 9.74-12.12 5.1-5.03-3.81-6.58-2.64-7.66 5.74-1.39 10.89-7.41 28.15-13.48 38.71-2.76 4.82-7.57 13.38-10.68 19.04l-5.66 10.29 4.29-2.7c2.36-1.48 8.39-5.51 13.4-8.95zm-55.17-22.21c2.32-10.03 0.16-37.49-4.27-54.3-0.76-2.89-0.57-3.4 0.81-2.11 2.14 1.98 6.03 23.02 6.57 35.55 0.21 4.84 0.89 8.48 1.51 8.1s0.92-7.15 0.66-15.04c-0.25-7.89 0.13-14.35 0.85-14.35 1.33 0 1.35 30.81 0.02 41.39-0.74 5.99-2.71 7.52-3.88 3.03-0.53-2-0.74-1.81-0.88 0.76-0.09 1.88-0.78 3.42-1.53 3.42-0.77 0-0.71-2.77 0.14-6.45zm3.65-5.29c-0.5-0.5-0.86 0.39-0.79 2 0.07 1.76 0.43 2.12 0.91 0.91 0.44-1.09 0.39-2.4-0.12-2.91zm5.98 7c1.78-5.62 1.98-7.83 2.1-23.23 0.07-8.28 0.54-14.64 1.06-14.12 1.18 1.19 0.88 34.98-0.35 38.18-1.39 3.63-3.98 2.86-2.81-0.83zm68.52-0.64c0.46-1.21 1.45-1.82 2.2-1.36 1.88 1.17 1.71 1.72-0.84 2.7-1.47 0.57-1.92 0.12-1.36-1.34zm-89.12-12.21c-0.02-6.61-0.63-14.59-1.36-17.72-0.72-3.13-0.78-5.69-0.12-5.69 1.8 0 4.15 16.37 3.67 25.58-0.67 12.67-2.15 11.19-2.19-2.17zm27.73-2.5c0.02-4.78 0.64-8.33 1.36-7.88 1.59 0.98 1.49 7.53-0.2 12.78-0.9 2.82-1.2 1.56-1.16-4.9zm110.52-40.28c0.01-7.52 12.36-22.72 19.39-23.86 3.35-0.54 6.42 1.89 6.4 5.06-0.02 3.22-9.28 14.84-15.47 19.4-6.67 4.93-10.33 4.71-10.32-0.6zm13.02-8.97c-0.41-1.07-0.08-2.35 0.73-2.85 0.81-0.51 1.08-1.56 0.59-2.36-1.61-2.59-3.72 0.22-3.72 4.94 0 3.42-0.57 4.41-2.2 3.79-1.49-0.58-1.92-0.12-1.33 1.42 0.75 1.95 1.27 1.9 3.77-0.36 1.6-1.45 2.57-3.51 2.16-4.58zm7.47-8.11c0.52-0.84 0.26-1.52-0.58-1.52-0.83 0-1.94 0.68-2.45 1.52-0.52 0.83-0.26 1.52 0.58 1.52 0.83 0 1.94-0.69 2.45-1.52zm-98.57-1.35c3.87-11.87 7.19-44.77 5.83-57.88-0.8-7.77-2.63-16.421-4.76-22.498-0.7-1.998-0.48-2.174 1.01-0.801 2.86 2.641 6.04 18.019 6.39 30.889l0.31 11.39 0.88-12.91c0.74-10.74 1.11-12.15 2.24-8.4 1.33 4.41-0.78 28.32-3.83 43.33-1.64 8.08-9.02 27.34-10.47 27.34-0.55 0 0.53-4.71 2.4-10.46zm11.25-5.84c0-0.95 0.68-3.52 1.51-5.7 0.83-2.19 1.82-5.82 2.21-8.07 2.94-17.32 3.86-25.14 3.96-33.72 0.1-8.35 0.38-9.33 1.8-6.38 2.92 6.08-3.54 49.64-8.04 54.15-0.91 0.91-1.44 0.8-1.44-0.28zm9.81-14.08c3.46-14.98 5.37-25.03 5.37-28.19 0-2.03 0.7-3.7 1.55-3.7s1.24 1.54 0.85 3.42c-0.38 1.88-1.51 8.2-2.51 14.05-0.99 5.84-2.78 12.34-3.97 14.42l-2.16 3.8 0.87-3.8zm25.67-18.98c0.41-1.67 2.55-8.16 4.76-14.43 4.62-13.096 8.29-33.307 8.33-45.847 0.01-4.754 0.71-9.066 1.54-9.582 4.68-2.887-1.11 40.265-7.69 57.439-3.45 9-8.17 17.44-6.94 12.42zm23.75-1.52c0-0.42 2.56-3.34 5.69-6.49s7.55-9.47 9.82-14.04c4.27-8.627 5.86-7.281 2.08 1.76-3.36 8.05-17.59 23.23-17.59 18.77zm9.11-1.44c0-1.47 14.05-20.7 14.67-20.08 0.79 0.79-7.85 15.68-10.83 18.65-2.09 2.1-3.84 2.75-3.84 1.43zm-24.3-1.47c0-0.35 1.36-3.81 3.03-7.7 3.5-8.16 6.87-22.029 8.4-34.569 1.03-8.382 3.81-12.383 3.7-5.315-0.19 12.449-10.53 48.214-13.94 48.214-0.65 0-1.19-0.28-1.19-0.63zm-28.73-20.88c-0.07-0.56 0.98-5.33 2.33-10.597 2.35-9.171 2.3-21.342-0.14-37.749l-0.79-5.315 2.17 4.556c3.41 7.155 4.38 19.305 2.43 30.625-1.53 8.915-5.63 21.53-6 18.48zm8.23-14.934c1.95-8.884 2.19-18.556 0.68-27.214-1.45-8.348-0.81-11.616 1.53-7.819 3.91 6.317 2.72 34.683-1.61 38.711-1.33 1.233-1.48 0.324-0.6-3.678zm-71.32 176.06c1.64-2.64-0.23-3.2-2.31-0.69-1.2 1.44-1.31 2.31-0.3 2.31 0.88 0 2.06-0.73 2.61-1.62zm18.97-6.73c2.06-2.81 2.03-2.88-0.43-0.95-1.46 1.14-2.65 2.8-2.65 3.67s0.19 1.3 0.42 0.95c0.24-0.35 1.44-2 2.66-3.67zm-71.08-4.35c3.41-4.21 3.39-7.04-0.04-7.04-1.74 0-3.96 2.51-6.09 6.89l-3.35 6.89 3.43-1.75c1.88-0.97 4.61-3.21 6.05-4.99zm131.22-5.07c-0.26-0.26 2.16-3.23 5.36-6.6 5.06-5.31 11.91-16.2 11.91-18.93 0-0.49-4.79 4.1-10.63 10.2-5.84 6.09-10.63 11.71-10.63 12.48s-1.05 2.56-2.33 3.97-2.61 4.05-2.96 5.86c-0.56 2.93-0.05 2.75 4.56-1.6 2.86-2.7 4.98-5.12 4.72-5.38zm-121.58 3.77c-2.76-1.54-6.95-0.61-6.95 1.54 0 0.72 2.15 0.99 4.77 0.61 3.94-0.58 4.32-0.95 2.18-2.15zm8.28-7.82c-1.2-5.79-2.35-8.15-3.71-7.63-1.3 0.5-3.15-2.38-5.4-8.39-1.88-5.03-4.37-9.93-5.53-10.89-1.16-0.97-2.11-2.46-2.11-3.33 0-2.1-10.91-16.46-17.58-23.13-2.94-2.94-4.89-6.08-4.34-6.98 0.56-0.9-1.94-4.65-5.55-8.33-3.62-3.68-5.8-6.69-4.86-6.69 2.68 0 27.84 30.17 33.56 40.24 2.55 4.5 2.18 1.13-1.35-12.28-2.24-8.52-3.56-20.21-4.53-40.11-1.86-38.3-4.08-49.52-12.39-62.673-4.85-7.682-17.04-19.34-20.22-19.34-1.04 0-2.28-0.988-2.74-2.196-0.47-1.208-6.86-5.059-14.21-8.559-7.35-3.499-16.91-8.745-21.25-11.658-7.06-4.752-8.57-5.192-14.66-4.279-5.91 0.887-8.92 2.981-23.211 16.168-11.778 10.867-19.866 16.915-28.616 21.397-30.633 15.691-47.133 31.92-57.033 56.08-1.852 4.52-4.383 10.53-5.6245 13.35-3.2726 7.43-2.0257 23.35 2.5381 32.41 7.4784 14.85 21.611 27.08 31.133 26.94 4.165-0.06 3.887-0.33-2.721-2.66-4.773-1.68-8.018-3.92-9.232-6.38-1.029-2.09-3.356-6.67-5.169-10.18-4.372-8.45-4.186-16.99 0.59-27.09 8.539-18.05 34.054-31.28 55.256-28.66 16.956 2.1 27.969 8.45 50.499 29.1 8.21 7.52 17.69 14.44 25.06 18.29 12.82 6.7 25.6 18.33 33.87 30.8 5.27 7.94 21.01 23.26 30.28 29.44 5.47 3.66 10.19 6.42 10.47 6.14 0.29-0.29-0.26-4.3-1.22-8.92zm-31.05-62.97c-1.22-2.37-5.34-8.13-9.15-12.81s-6.92-9.02-6.92-9.65c0-1.93 9.13 7.47 12.43 12.79 1.71 2.76 3.39 4.73 3.74 4.38 0.9-0.9-2.45-8.29-6.85-15.12-2.03-3.15-3.35-6.07-2.93-6.48 1.14-1.15 7.77 9.65 11.45 18.66 1.79 4.39 2.63 7.98 1.87 7.98-0.77 0-1 1.02-0.52 2.27 1.53 3.97-0.8 2.46-3.12-2.02zm0.72-20.54c-1.93-4.77-3.21-8.99-2.84-9.36 1.01-1.01 7.54 14.53 6.91 16.43-0.3 0.89-2.13-2.29-4.07-7.07zm-44.01-25.91c-0.06-1.6 0.29-2.5 0.8-1.99 0.5 0.5 0.56 1.81 0.12 2.91-0.49 1.21-0.85 0.85-0.92-0.92zm-2.21-6.26c-1.46-3.82-1.03-4.8 0.76-1.72 0.89 1.52 1.29 3.09 0.9 3.48s-1.14-0.4-1.66-1.76zm0.79-7.69c-1.14-3.25-4.75-10.62-8.02-16.38-6.89-12.098-6.94-15.119-0.08-4.402 5.79 9.052 11.18 21.502 10.6 24.462-0.24 1.23-1.37-0.43-2.5-3.68zm-5.12-0.98c-1.22-1.88-3.04-5.13-4.06-7.22-1.77-3.65-1.74-3.68 0.64-0.75 2.85 3.48 7.19 11.39 6.26 11.39-0.34 0-1.62-1.54-2.84-3.42zm3.19-15.71c-1.79-4.1-5.22-9.942-7.61-12.985-5.11-6.504-5.7-9.065-1.14-4.953 3.66 3.307 14.12 23.278 12.86 24.548-0.46 0.46-2.31-2.52-4.11-6.61zm-11.99 1.62c-1.05-1.27-1.62-2.6-1.26-2.96s1.48 0.68 2.5 2.31c2.21 3.53 1.47 3.92-1.24 0.65zm12.99-11.35c-0.65-2.088-3.15-6.735-5.55-10.327-4.66-6.965-5.04-7.897-3.2-7.897 1.82 0 11.3 18.049 10.58 20.15-0.35 1.029-1.18 0.163-1.83-1.926zm28.97 149.24c-0.51-0.5-0.87 0.4-0.8 2 0.07 1.77 0.43 2.13 0.92 0.91 0.44-1.09 0.38-2.4-0.12-2.91zm-0.48-28.26c-1.48-2.4-3.17 4.26-3.2 12.67l-0.02 6.83 2.15-8.88c1.18-4.88 1.66-9.66 1.07-10.62zm43.79 13.16c-1.33-2.28-1.62-2.34-1.66-0.37-0.05 2.56 1.55 4.86 2.62 3.79 0.36-0.36-0.08-1.9-0.96-3.42zm133.46-10.69c0-0.24-1.2-0.41-2.66-0.39-4.14 0.08-7.72 3.52-10.37 9.98l-2.43 5.92 7.73-7.54c4.25-4.14 7.73-7.73 7.73-7.97zm-312.85-9.36c0-0.74-1.083-3.93-2.406-7.09-2.784-6.67-2.636-7.55 4.291-25.68 6.286-16.45 10.348-20.25 29.206-27.35l13.128-4.94-11.441-1.03c-10.547-0.96-12.304-0.68-22.505 3.57-24.469 10.18-36.838 31.95-27.105 47.7 1.74 2.82 3.164 6.25 3.164 7.62 0 1.38 2.221 3.86 4.935 5.51 5.252 3.2 8.733 3.88 8.733 1.69zm308.29-3.22c0-0.84-0.72-1.52-1.61-1.52-0.88 0-1.18 0.68-0.67 1.52 0.52 0.83 1.24 1.51 1.61 1.51s0.67-0.68 0.67-1.51zm25.82-5.48c0-0.33-1.03-0.6-2.28-0.6s-2.28 0.66-2.28 1.47 1.03 1.08 2.28 0.6 2.28-1.14 2.28-1.47zm-59.99-9.33c0.15-1.96-0.61-3.42-1.77-3.42-1.12 0-2.03 1.03-2.03 2.28s-0.68 2.28-1.51 2.28c-0.84 0-1.52-0.69-1.52-1.52 0-2.38-4.13-1.78-5.1 0.73-0.49 1.28-1.87 1.87-3.2 1.36-1.29-0.5-2.33-0.09-2.33 0.9 0 1.24 2.69 1.65 8.6 1.31 7.68-0.45 8.64-0.88 8.86-3.92zm8.35 1.14c-4.41-3.45-6.23-3.82-5.69-1.14 0.53 2.63 2.87 4.13 6.45 4.12 2.78-0.01 2.72-0.26-0.76-2.98zm24.3-3.81c0-1.91-1.04-3.86-2.31-4.35-1.59-0.61-2.03-2.04-1.4-4.55 0.55-2.19 0.16-4.14-0.96-4.83-1.45-0.89-1.67 0.65-0.95 6.67 0.52 4.43 0.32 7.83-0.48 7.83-0.77 0-1.03 0.95-0.59 2.11 1.31 3.4 6.69 1.07 6.69-2.88zm-133.49-7.17c-0.48-13.29-1.67-13.05-1.67 0.35 0 6.12 0.45 10.68 1.01 10.12 0.55-0.55 0.85-5.26 0.66-10.47zm-1.96-15.89c0.19 2.75 0.9 3.89 2.01 3.2 1.21-0.75 1.51-7.43 0.99-22.49-0.47-13.87-0.25-19.82 0.63-16.87 0.75 2.51 1.41 15.83 1.48 29.62 0.16 34.95 2.3 23.24 2.91-15.95l0.49-31.89 0.83 21.26c1.13 29.21 3.85 23.07 3.85-8.73 0.01-13.15 0.52-23.918 1.15-23.92 0.62-0.002 1.14 5.42 1.14 12.06 0 14.55 2.92 18.45 3.26 4.35 0.34-14-0.07-17.481-3.53-30.058-4.5-16.357-3.29-24.432 6.88-45.791 11.22-23.543 11.8-27.615 4.5-31.459-5.37-2.8262-9.13-2.1194-27.25 5.133-20.5 8.199-37.47 10.511-45.74 6.231-9.42-4.87-28.26-2.342-33.66 4.514-4.46 5.675-5.82 16.874-2.43 20.097 1.97 1.872 2.83 2.034 3.36 0.626 0.38-1.044 1.37-1.898 2.19-1.898s3.22-2.05 5.32-4.556c6.79-8.071 14.03-5.062 20.88 8.682 2.17 4.357 3.95 8.865 3.95 10.018 0 4.529 5.14 12.002 10.63 15.473 13.24 8.358 22.41 23.467 26.72 44.038 1.41 6.68 3.08 24.11 3.72 38.73 1.03 23.56 1.71 30.73 3.15 33.41 0.22 0.42 0.82-5.73 1.34-13.67 0.52-7.93 1.07-12.51 1.23-10.16zm-15.38-90.452c-0.51-6.891-2.27-17.304-3.91-23.139-1.65-5.834-2.7-10.903-2.34-11.263 1.02-1.023 1.54-0.01 4.96 9.723l3.21 9.112-0.76-8.353c-1.03-11.34 1.72-6.761 3.72 6.193 2.05 13.342 2.52 22.322 1.23 23.61-0.59 0.593-1.15-1.258-1.25-4.111-0.1-2.854-0.75-7.24-1.44-9.745-0.78-2.83-0.94 0.193-0.42 7.973 0.5 7.533 0.26 12.529-0.62 12.529-0.79 0-1.87-5.638-2.38-12.529zm7.77-14.428c-0.64-11.413 0.7-19.045 2.18-12.442 1.47 6.594 1.37 22.693-0.15 22.693-0.8 0-1.72-4.613-2.03-10.251zm5.01-0.67c0.09-3.599 0.7-8.252 1.37-10.34 0.91-2.83 1.25-1.403 1.37 5.605 0.08 5.171-0.53 9.825-1.37 10.341-0.93 0.575-1.46-1.596-1.37-5.606zm150.2 102.04c1.26-0.81 1.6-1.47 0.76-1.47-0.83 0-2.54 0.66-3.8 1.47-1.25 0.81-1.59 1.48-0.75 1.48 0.83 0 2.54-0.67 3.79-1.48zm-4.55-3.88c0-0.37-0.69-0.67-1.52-0.67-0.84 0-1.52 0.72-1.52 1.61 0 0.88 0.68 1.18 1.52 0.67 0.83-0.52 1.52-1.24 1.52-1.61zm7.59-1.52c0-0.37-0.68-0.67-1.52-0.67-0.83 0-1.52 0.72-1.52 1.61 0 0.88 0.69 1.18 1.52 0.67 0.84-0.52 1.52-1.24 1.52-1.61zm5.67-4.66c-2.62-2.47-8.71-4.11-8.71-2.35 0 0.8 1.03 1.85 2.28 2.33s2.28 1.93 2.28 3.21c0 1.96 0.5 2.03 3.01 0.46 2.37-1.48 2.61-2.26 1.14-3.65zm6.94-5.02c1.66-2.81 2.06-4.8 1.08-5.4-2.3-1.43-4.57 0.52-3.59 3.07 0.47 1.22 0.15 2.23-0.71 2.23-0.87 0-1.8-1.06-2.07-2.36-0.43-2.1-0.82-2.08-3.52 0.13-2.39 1.95-2.49 2.3-0.46 1.67 1.67-0.52 2.91 0.23 3.52 2.15 1.29 4.08 2.67 3.72 5.75-1.49zm-211.83-87.71c-2.62-9.5-10.51-20.254-14.8-20.18-3.26 0.056-14.4 10.601-12.79 12.104 0.7 0.662 5.04 3.027 9.64 5.256 4.59 2.229 10.06 4.972 12.15 6.096 6.52 3.511 7.52 2.948 5.8-3.276zm-1.25 355.69c0-0.4 3.42-5.41 7.6-11.14 4.17-5.72 7.59-11.2 7.59-12.18 0-0.97 0.7-1.77 1.57-1.77 0.96 0 0.81 1.31-0.38 3.42-8.27 14.54-16.38 25.26-16.38 21.67zm4.56-0.51c0-0.68 2.08-3.22 4.62-5.66 2.54-2.43 6.71-7.69 9.27-11.67 2.56-3.99 4.96-7.25 5.34-7.25 1.6 0-7.63 14.86-12.49 20.12-5.33 5.76-6.74 6.7-6.74 4.46zm16.7-10.07c0-0.51 2-3.13 4.45-5.82 9.86-10.87 12.43-14.25 14.95-19.66 3.34-7.2 5.69-7.53 2.71-0.38-3.21 7.68-22.11 29.79-22.11 25.86zm15.15-69.57c3.22-6.89 6.63-15.5 7.6-19.13 0.96-3.64 2.09-6.27 2.51-5.85 2.11 2.11-11.95 37.51-14.91 37.51-0.57 0 1.59-5.63 4.8-12.53zm1.56 10.92c0-0.89 0.84-3.12 1.88-4.94 1.03-1.82 3.37-7.08 5.21-11.67 1.94-4.87 3.37-7.01 3.43-5.15 0.06 1.77-1.95 7.75-4.46 13.29-4.37 9.64-6.06 12-6.06 8.47zm85.07-17.9c2.94-1.64 13.36-5.41 23.14-8.37 9.79-2.97 19.23-6.17 20.99-7.1 3.67-1.97 6.24-0.5 2.88 1.65-2.05 1.3-9.08 3.59-36.4 11.86-5.43 1.64-11.24 3.43-12.91 3.97-1.67 0.53-0.63-0.37 2.3-2.01z"/>
  <metadata>
    <rdf:RDF>
      <cc:Work>
        <dc:format>image/svg+xml</dc:format>
        <dc:type rdf:resource="http://purl.org/dc/dcmitype/StillImage"/>
        <cc:license rdf:resource="http://creativecommons.org/licenses/publicdomain/"/>
        <dc:publisher>
          <cc:Agent rdf:about="http://openclipart.org/">
            <dc:title>Openclipart</dc:title>
          </cc:Agent>
        </dc:publisher>
        <dc:title>Corolla</dc:title>
        <dc:date>2009-04-05T11:28:03</dc:date>
        <dc:description>Corolla of a flower (lily?).&#xD;\n&#xD;\nSource: http://commons.wikimedia.org/wiki/File:Corolla_(PSF).png&#xD;\n&#xD;\nInfo: http://en.wikipedia.org/wiki/Corolla_(flower)#Corolla</dc:description>
        <dc:source>http://openclipart.org/detail/24088/corolla-by-warszawianka-24088</dc:source>
        <dc:creator>
          <cc:Agent>
            <dc:title>warszawianka</dc:title>
          </cc:Agent>
        </dc:creator>
        <dc:subject>
          <rdf:Bag>
            <rdf:li>biology</rdf:li>
            <rdf:li>black and white</rdf:li>
            <rdf:li>botany</rdf:li>
            <rdf:li>clip art</rdf:li>
            <rdf:li>clipart</rdf:li>
            <rdf:li>contour</rdf:li>
            <rdf:li>corolla</rdf:li>
            <rdf:li>externalsource</rdf:li>
            <rdf:li>flower</rdf:li>
            <rdf:li>image</rdf:li>
            <rdf:li>lily</rdf:li>
            <rdf:li>line art</rdf:li>
            <rdf:li>media</rdf:li>
            <rdf:li>nature</rdf:li>
            <rdf:li>outline</rdf:li>
            <rdf:li>plant</rdf:li>
            <rdf:li>png</rdf:li>
            <rdf:li>psf</rdf:li>
            <rdf:li>public domain</rdf:li>
            <rdf:li>season</rdf:li>
            <rdf:li>spring</rdf:li>
            <rdf:li>summer</rdf:li>
            <rdf:li>svg</rdf:li>
            <rdf:li>wikimedia commons</rdf:li>
          </rdf:Bag>
        </dc:subject>
      </cc:Work>
      <cc:License rdf:about="http://creativecommons.org/licenses/publicdomain/">
        <cc:permits rdf:resource="http://creativecommons.org/ns#Reproduction"/>
        <cc:permits rdf:resource="http://creativecommons.org/ns#Distribution"/>
        <cc:permits rdf:resource="http://creativecommons.org/ns#DerivativeWorks"/>
      </cc:License>
    </rdf:RDF>
  </metadata>
</svg>
