<?xml version="1.0" encoding="utf-8"?>
<!-- Generator: Adobe Illustrator 15.0.0, SVG Export Plug-In . SVG Version: 6.00 Build 0)  -->
<!DOCTYPE svg PUBLIC "-//W3C//DTD SVG 1.1//EN" "http://www.w3.org/Graphics/SVG/1.1/DTD/svg11.dtd">
<svg version="1.1" id="Layer_1" xmlns="http://www.w3.org/2000/svg" xmlns:xlink="http://www.w3.org/1999/xlink" x="0px" y="0px"
	 width="38px" height="38px" viewBox="0 0 38 38" enable-background="new 0 0 38 38" xml:space="preserve">
<path fill="none" stroke="#231F20" stroke-width="2" stroke-miterlimit="10" d="M7,19c0-6.627,5.373-12,12-12s12,5.373,12,12
	s-5.373,12-12,12S7,25.627,7,19z M8.608,13C5.837,11.4,7.686,9.167,7.686,7.687c1.481,0,3.714-1.85,5.313,0.921 M29.393,25
	c2.771,1.6,0.921,3.833,0.921,5.313c-1.48,0-3.713,1.85-5.313-0.922 M25.001,8.607c1.6-2.771,3.832-0.921,5.313-0.921
	c0,1.481,1.849,3.713-0.923,5.314 M13,29.392c-1.601,2.771-3.833,0.922-5.313,0.922c0-1.48-1.851-3.714,0.921-5.313 M7.001,19
	c-3.201,0-2.715-2.858-3.456-4.141C4.828,14.119,5.836,11.4,8.607,13 M31,19c3.2,0,2.714,2.859,3.454,4.142
	c-1.282,0.74-2.29,3.458-5.063,1.857 M19,7c0-3.2,2.858-2.714,4.141-3.455C23.882,4.828,26.6,5.837,25,8.608 M19,30.999
	c0,3.201-2.858,2.716-4.141,3.456c-0.74-1.282-3.459-2.291-1.859-5.063 M8.608,24.999c-2.772,1.601-3.78-1.117-5.063-1.857
	C4.286,21.858,3.8,19,6.999,19 M29.393,13c2.771-1.6,3.779,1.12,5.062,1.86c-0.74,1.282-0.254,4.14-3.455,4.14 M13,8.606
	c-1.6-2.771,1.118-3.779,1.859-5.062C16.142,4.285,19,3.8,19,7 M24.999,29.392c1.601,2.772-1.117,3.781-1.858,5.063
	C21.859,33.714,19,34.2,19,31 M19,7l10.393,18 M8.611,24.999L29.393,25 M8.611,24.999L19,7 M12.074,19l-3.467-6 M19,31l-3.464-6.001
	 M15.536,13.001L8.607,13 M29.389,13.001h-6.924 M22.463,25L19,31 M29.389,13.001L25.926,19"/>
</svg>
