<?xml version="1.0" encoding="utf-8"?>
<!-- Generator: Adobe Illustrator 15.0.0, SVG Export Plug-In . SVG Version: 6.00 Build 0)  -->
<!DOCTYPE svg PUBLIC "-//W3C//DTD SVG 1.1//EN" "http://www.w3.org/Graphics/SVG/1.1/DTD/svg11.dtd">
<svg version="1.1" id="Layer_1" xmlns="http://www.w3.org/2000/svg" xmlns:xlink="http://www.w3.org/1999/xlink" x="0px" y="0px"
	 width="38px" height="38px" viewBox="0 0 38 38" enable-background="new 0 0 38 38" xml:space="preserve">
<path fill="none" stroke="#231F20" stroke-width="2" stroke-miterlimit="10" d="M17.578,21.744c0,0,0.911,2.531,1.658,4.608
	c0.749,2.079,3.039,3.158,5.118,2.41c2.078-0.748,3.157-3.04,2.408-5.117c-0.429-1.196-1.596-4.44-2.511-6.981
	C22.17,10.889,17.147,5,12,5c-4.75,0-7,2.917-7,6.25c0,5,4.917,7.417,8,23.75h7 M17,35c-1-9.478-2.797-17.264-4.258-23.083
	C15.537,18.014,19,19,21.75,19c2.048,0,3.85-1.102,4.964-2.162c3.988-3.795,8.866-8.436,8.866-8.436"/>
</svg>
