<?xml version="1.0" encoding="utf-8"?>
<!-- Generator: Adobe Illustrator 15.0.0, SVG Export Plug-In . SVG Version: 6.00 Build 0)  -->
<!DOCTYPE svg PUBLIC "-//W3C//DTD SVG 1.1//EN" "http://www.w3.org/Graphics/SVG/1.1/DTD/svg11.dtd">
<svg version="1.1" id="Layer_1" xmlns="http://www.w3.org/2000/svg" xmlns:xlink="http://www.w3.org/1999/xlink" x="0px" y="0px"
	 width="38px" height="38px" viewBox="0 0 38 38" enable-background="new 0 0 38 38" xml:space="preserve">
<path fill="none" stroke="#231F20" stroke-width="2" stroke-miterlimit="10" d="M21.403,32.333C15.821,30.567,13,28.5,13,20
	c0-7.875,0.083-8.917-2.417-11.417L9,7c1.706,1.706,3.5,2,10.167,2C26.452,9,31,11.866,31,22c0,10,0,13.367,0,13.367
	S22.734,32.754,21.403,32.333z M7.675,5.675L5,3c1.25,1.25,2.355,3.702,1.938,7.938C6.624,14.115,5,17.017,5,20.545
	C5,26.206,9.227,30,16.422,30 M30.975,20.734l-10.201,11.4 M25.903,33.756L31,28.059"/>
</svg>
