<?xml version="1.0" encoding="utf-8"?>
<!-- Generator: Adobe Illustrator 15.0.0, SVG Export Plug-In . SVG Version: 6.00 Build 0)  -->
<!DOCTYPE svg PUBLIC "-//W3C//DTD SVG 1.1//EN" "http://www.w3.org/Graphics/SVG/1.1/DTD/svg11.dtd">
<svg version="1.1" id="Layer_1" xmlns="http://www.w3.org/2000/svg" xmlns:xlink="http://www.w3.org/1999/xlink" x="0px" y="0px"
	 width="38px" height="38px" viewBox="0 0 38 38" enable-background="new 0 0 38 38" xml:space="preserve">
<path fill="none" stroke="#231F20" stroke-width="2" stroke-miterlimit="10" d="M3,24c0,0,0,0.658,0,1c0,3.375,2.083,6,7,6
	c3,0,5.417,0,10,0c5.139,0,10.416,0.001,11,0c1.104,0,2-0.895,2-2c0-1.104-0.896-2-2-2c-1.105-0.001-11.027-0.001-11.027-0.001
	 M32.731,23c0,0,2.112,0,2.269,0c1.104,0,2-0.896,2-2s-0.896-2-2-2s-13,0-13,0 M29.245,27c0,0,3.599,0,3.755,0c1.104,0,2-0.896,2-2
	s-0.896-2-2-2s-11,0-11,0 M25.043,15.249c0,0-3.009-2.456-3.307-2.699c-0.856-0.698-0.984-1.958-0.286-2.813
	c0.698-0.856,1.958-0.983,2.813-0.286c0.351,0.285,2.137,1.732,3.489,2.825C28.936,13.231,29,13.75,29,14.333
	c0,1.044-0.436,1.764-1.829,2.66C24.696,18.584,22.906,19,22.906,19 M3,22c0,0,0-1.273,0-1.875C3,15.708,9.325,7.061,14.492,7.039
	c1-0.005,3.396-0.034,4.5-0.039C20.096,6.996,20.995,7.886,21,8.992c0.005,1.104-0.886,2.004-1.992,2.008
	c-1.105,0.004-3.834,0.024-4.33,0.026C14.678,11.027,13,12,13,13s1.667,2,6,2c3.167,0,4.101-0.97,4.304-1.171"/>
</svg>
