<?xml version="1.0" encoding="utf-8"?>
<!-- Generator: Adobe Illustrator 15.0.0, SVG Export Plug-In . SVG Version: 6.00 Build 0)  -->
<!DOCTYPE svg PUBLIC "-//W3C//DTD SVG 1.1//EN" "http://www.w3.org/Graphics/SVG/1.1/DTD/svg11.dtd">
<svg version="1.1" id="Layer_1" xmlns="http://www.w3.org/2000/svg" xmlns:xlink="http://www.w3.org/1999/xlink" x="0px" y="0px"
	 width="38px" height="38px" viewBox="0 0 38 38" enable-background="new 0 0 38 38" xml:space="preserve">
<path fill="none" stroke="#231F20" stroke-width="2" stroke-miterlimit="10" d="M30.314,19c0,6.25-5.064,11.314-11.314,11.314
	S7.685,25.25,7.685,19S12.75,7.685,19,7.685S30.314,12.75,30.314,19z M19,27l7-12H12L19,27 M11,28.358c0,6.084,5,5.204,8,8.204
	c3-3,8-2.12,8-8.204c0-1.001,0-17.716,0-18.717c0-6.084-5-5.204-8-8.204c-3,3-8,2.12-8,8.204C11,10.645,11,27.355,11,28.358z
	 M9.642,11c-6.084,0-5.204,5-8.204,8c3,3,2.12,8,8.204,8c1.001,0,17.716,0,18.717,0c6.084,0,5.204-5,8.204-8c-3-3-2.12-8-8.204-8
	C27.355,11,10.645,11,9.642,11z"/>
</svg>
