<?xml version="1.0" encoding="utf-8"?>
<!-- Generator: Adobe Illustrator 15.0.0, SVG Export Plug-In . SVG Version: 6.00 Build 0)  -->
<!DOCTYPE svg PUBLIC "-//W3C//DTD SVG 1.1//EN" "http://www.w3.org/Graphics/SVG/1.1/DTD/svg11.dtd">
<svg version="1.1" id="Layer_1" xmlns="http://www.w3.org/2000/svg" xmlns:xlink="http://www.w3.org/1999/xlink" x="0px" y="0px"
	 width="38px" height="38px" viewBox="0 0 38 38" enable-background="new 0 0 38 38" xml:space="preserve">
<g display="none">
	<path display="inline" fill="none" stroke="#231F20" stroke-width="2" stroke-miterlimit="10" d="M29,1c0,0-2,1-3.947,1
		c-2.116,0-3.701-1-6.844-1C12.351,1,11,6.148,11,6.148S11,13.134,11,17s3.007,8,8,8c4.992,0,8-4.134,8-8s0-11.243,0-11.243
		C26.259,5.893,25.671,6,25.053,6C22,6,20.976,5,18.208,5c-1.302,0-2.374,0.61-3.022,1.489"/>
	<path display="inline" fill="none" stroke="#231F20" stroke-width="2" stroke-miterlimit="10" d="M15,16c0,1.933,1.504,4,4,4
		c2.497,0,4-2.067,4-4"/>
	<polygon display="inline" fill="#FFFFFF" points="25,19 19,16 13,19 13,10 25,10 	"/>
	<rect x="28" y="-4" display="inline" fill="#FFFFFF" width="3" height="8"/>
	<path display="inline" fill="#282425" d="M16.1,12.5c0,1.271-0.493,1.65-1.1,1.65s-1.1-0.379-1.1-1.65c0-1.27,0.493-1.65,1.1-1.65
		S16.1,11.23,16.1,12.5z"/>
	<path display="inline" fill="#282425" d="M24.1,12.5c0,1.271-0.491,1.65-1.1,1.65s-1.1-0.379-1.1-1.65c0-1.27,0.491-1.65,1.1-1.65
		S24.1,11.23,24.1,12.5z"/>
	<line display="inline" fill="none" stroke="#231F20" stroke-width="2" stroke-miterlimit="10" x1="19" y1="13" x2="19" y2="17"/>
	<path display="inline" fill="none" stroke="#231F20" stroke-width="2" stroke-miterlimit="10" d="M23,24c0,2,1,2.731,4,4.115
		C31.48,30.184,34,30,35,37H3c1-7,3.519-6.816,8-8.885C14,26.731,15,26,15,24"/>
	<line display="inline" fill="none" stroke="#231F20" stroke-width="2" stroke-miterlimit="10" x1="19" y1="28" x2="19" y2="38"/>
</g>
<g display="none">
	<path display="inline" fill="none" stroke="#231F20" stroke-width="2" stroke-miterlimit="10" d="M3,19c0,8.836,7.164,16,16,16
		s16-7.164,16-16S27.836,3,19,3S3,10.164,3,19h20"/>
	<polyline display="inline" fill="none" stroke="#231F20" stroke-width="2" stroke-miterlimit="10" points="17.188,13.116 
		23.071,19 17.188,24.884 	"/>
	<rect y="20" display="inline" fill="#FFFFFF" width="9" height="2"/>
</g>
<g display="none">
	<circle display="inline" fill="none" stroke="#231F20" stroke-width="2" stroke-miterlimit="10" cx="19" cy="19" r="16"/>
	<polyline display="inline" fill="none" stroke="#231F20" stroke-width="2" stroke-miterlimit="10" points="19,8 19,19 25,24 	"/>
	
		<line display="inline" fill="none" stroke="#231F20" stroke-width="2" stroke-miterlimit="10" x1="10.519" y1="32.569" x2="7.75" y2="37"/>
	
		<line display="inline" fill="none" stroke="#231F20" stroke-width="2" stroke-miterlimit="10" x1="30.25" y1="37" x2="27.479" y2="32.567"/>
	
		<rect x="22.243" y="34.165" transform="matrix(0.53 0.848 -0.848 0.53 42.3888 -6.1508)" display="inline" fill="#FFFFFF" width="9.001" height="2"/>
</g>
<g display="none">
	<path display="inline" fill="none" stroke="#231F20" stroke-width="2" stroke-miterlimit="10" d="M30,23c0,0-17.922,0-20,0
		c-2.761,0-5,2.238-5,5s2.239,5,5,5c2.078,0,15.502,0,18,0c2.762,0,5-2.238,5-5s0-5.238,0-8s-2.238-5-5-5c-2.498,0-15.922,0-18,0
		c-2.761,0-5,2.238-5,5c0,1.167,0,2.167,0,2.167"/>
	<circle display="inline" fill="#231F20" cx="10" cy="28" r="1.1"/>
</g>
<g display="none">
	<path display="inline" fill="none" stroke="#231F20" stroke-width="2" stroke-miterlimit="10" d="M7,10v3.197
		c0,0-1.159,0.564-2.864,1.308C2.762,15.104,1,15.897,1,19c0,3.104,0,12,0,12h36c0,0,0-8.896,0-12c0-3.103-1.57-3.813-2.946-4.413
		c-1.419-0.619-6.786-3.087-6.786-3.087S26.866,10,26.598,9c-0.268-1-0.681-2-2.535-2c-1,0-8.125,0-10.125,0s-2.268,1-2.536,2
		s-0.817,3.049-0.817,3.049"/>
	
		<line display="inline" fill="none" stroke="#231F20" stroke-width="2" stroke-miterlimit="10" x1="25.928" y1="25" x2="34" y2="25"/>
	
		<line display="inline" fill="none" stroke="#231F20" stroke-width="2" stroke-miterlimit="10" x1="1" y1="25" x2="12.071" y2="25"/>
	<circle display="inline" fill="none" stroke="#231F20" stroke-width="2" stroke-miterlimit="10" cx="19" cy="21" r="8"/>
</g>
<path fill="none" stroke="#231F20" stroke-width="2" stroke-miterlimit="10" d="M8.89,15.441c0,0,2.591-2.226,5.11-2.441
	c1.47-0.126,3,0.504,3,2.442c0,1.746-1.543,3.306-3,3.558c1.746,0,9,1.188,9,8c0,3.5-2.538,6.111-6.349,6
	c-5.403-0.157-6.468-4.601-10.078-5.786c-1.669-0.548-3.082,0.411-3.082,0.411 M26.228,26.188c0,0,1.46,1.813,3.328,1.813
	c2.554,0,3.71-1.832,3.397-5.375C32.649,19.184,29.055,15,25.365,15c-4.259,0-3.691,4.433-7.635,4.619 M14,7c0,0,4.375,4,9.313,4
	c3.313,0,4.375-3,4.375-3 M22.5,6C22.224,6,22,6.224,22,6.5S22.224,7,22.5,7S23,6.776,23,6.5S22.776,6,22.5,6z"/>
</svg>
