<?xml version="1.0" encoding="utf-8"?>
<!-- Generator: Adobe Illustrator 15.0.0, SVG Export Plug-In . SVG Version: 6.00 Build 0)  -->
<!DOCTYPE svg PUBLIC "-//W3C//DTD SVG 1.1//EN" "http://www.w3.org/Graphics/SVG/1.1/DTD/svg11.dtd">
<svg version="1.1" id="Layer_1" xmlns="http://www.w3.org/2000/svg" xmlns:xlink="http://www.w3.org/1999/xlink" x="0px" y="0px"
	 width="38px" height="38px" viewBox="0 0 38 38" enable-background="new 0 0 38 38" xml:space="preserve">
<path fill="none" stroke="#231F20" stroke-width="2" stroke-miterlimit="10" d="M13.318,13c0-0.173-0.14-0.313-0.313-0.313
	c-0.173,0-0.313,0.14-0.313,0.313c0,0.172,0.14,0.313,0.313,0.313C13.178,13.313,13.318,13.172,13.318,13z M24.688,24.994
	c0,0.173,0.142,0.313,0.313,0.313c0.173,0,0.313-0.14,0.313-0.313c0-0.174-0.141-0.313-0.313-0.313S24.688,24.82,24.688,24.994z
	 M25,13.318c0.173,0,0.313-0.14,0.313-0.313c0-0.173-0.14-0.313-0.313-0.313c-0.172,0-0.313,0.14-0.313,0.313
	C24.688,13.178,24.828,13.318,25,13.318z M13.006,24.688c-0.173,0-0.313,0.142-0.313,0.313c0,0.173,0.14,0.313,0.313,0.313
	c0.173,0,0.313-0.141,0.313-0.313C13.318,24.828,13.179,24.688,13.006,24.688z M5,5c1,1,2,2,2,5s0,9,0,9h24c0,0,0,6,0,9s1,4,2,5
	 M33,5c-1,1-2,2-5,2s-9,0-9,0v24c0,0-6,0-9,0s-4,1-5,2"/>
</svg>
