<?xml version="1.0" encoding="utf-8"?>
<!-- Generator: Adobe Illustrator 15.0.0, SVG Export Plug-In . SVG Version: 6.00 Build 0)  -->
<!DOCTYPE svg PUBLIC "-//W3C//DTD SVG 1.1//EN" "http://www.w3.org/Graphics/SVG/1.1/DTD/svg11.dtd">
<svg version="1.1" id="Layer_1" xmlns="http://www.w3.org/2000/svg" xmlns:xlink="http://www.w3.org/1999/xlink" x="0px" y="0px"
	 width="38px" height="38px" viewBox="0 0 38 38" enable-background="new 0 0 38 38" xml:space="preserve">
<path fill="none" stroke="#231F20" stroke-width="2" stroke-miterlimit="10" d="M31,19c0,6.627-5.373,12-12,12
	c-6.627,0-12-5.373-12-12c0-6.627,5.373-12,12-12C25.627,7,31,12.373,31,19z M19,13c-3.313,0-6,2.687-6,6c0,3.312,2.687,6,6,6
	c3.312,0,6-2.688,6-6C25,15.687,22.312,13,19,13z M25.663,9.022c1.778-2.66,3.574-1.411,4.649-1.334
	c0.076,1.075,1.326,2.869-1.331,4.645 M12.331,28.982c-1.776,2.657-3.569,1.408-4.646,1.332c-0.076-1.076-1.324-2.871,1.335-4.65
	 M28.978,25.665c2.659,1.778,1.411,3.573,1.335,4.648c-1.075,0.076-2.869,1.327-4.645-1.33 M9.017,12.333
	c-2.657-1.776-1.407-3.57-1.332-4.646c1.076-0.076,2.871-1.324,4.65,1.336 M30.767,16.657c3.139-0.623,3.525,1.53,4.231,2.344
	c-0.706,0.814-1.091,2.966-4.226,2.343 M7.226,21.344c-3.135,0.623-3.52-1.528-4.227-2.343c0.708-0.814,1.094-2.966,4.233-2.344
	 M21.342,30.77c0.623,3.138-1.529,3.524-2.343,4.23c-0.814-0.706-2.967-1.091-2.344-4.225 M16.655,7.227
	c-0.623-3.135,1.53-3.52,2.344-4.227c0.814,0.707,2.966,1.094,2.343,4.232 M21.337,7.231c0.626-3.138,2.763-2.671,3.785-3.012
	c0.481,0.964,2.323,2.143,0.548,4.8 M16.659,30.774c-0.624,3.134-2.759,2.667-3.782,3.008c-0.481-0.965-2.322-2.146-0.546-4.808
	 M30.769,21.339c3.138,0.625,2.671,2.761,3.012,3.783c-0.964,0.482-2.143,2.324-4.8,0.549 M7.225,16.66
	c-3.135-0.624-2.667-2.76-3.008-3.783c0.965-0.481,2.146-2.322,4.807-0.545 M28.974,12.332c2.662-1.777,3.843,0.064,4.807,0.546
	c-0.341,1.023,0.127,3.158-3.007,3.782 M9.019,25.671c-2.658,1.775-3.837-0.065-4.802-0.547c0.342-1.023-0.125-3.159,3.014-3.786
	 M25.667,28.977c1.776,2.661-0.063,3.842-0.545,4.806c-1.022-0.341-3.159,0.127-3.782-3.007 M12.328,9.02
	c-1.775-2.658,0.067-3.837,0.548-4.802c1.023,0.342,3.159-0.125,3.784,3.014 M19,31L8.608,13 M8.608,13l20.781,0 M29.39,13.001
	L19,31"/>
</svg>
